<svg id="Layer_1" data-name="Layer 1" xmlns="http://www.w3.org/2000/svg" viewBox="0 0 81.64 122.88"><defs><style>.cls-1{fill-rule:evenodd;}</style></defs><title>bearded-man</title><path class="cls-1" d="M22.88,94.65a18.2,18.2,0,0,0-1,3.24C13.05,87.15,11.12,84.71,10.15,71h.21c.58-1.9.69-4.94,1.74-5.69a22.74,22.74,0,0,0,.27-5.85c0-.27-.06-.52-.1-.78,2.21,2.88,2.81,5.45,4.65,9.48s3.17,4.66,7.7,5.48a21.61,21.61,0,0,0,3.75.34c4.63,0,9.13-.69,10.92-4.74.53-1.21,1.41-2.49,2.05-3.82.84-1.76,2.33-2.79,3.23-2.75s2.21,1.14,3,2.9c1.14,2.52,2.64,5.31,3.61,6.06A7.45,7.45,0,0,0,53.49,73c2.87,1.11,8.43,1.08,11.49.58.23,0,.45-.08.68-.13a8.29,8.29,0,0,0,4.59-2.95,21.32,21.32,0,0,0,3.56-6.93,23.6,23.6,0,0,1,2.33-4.48c.09-.12.22-.28.38-.46,0,1,0,2.12,0,3.27a61.3,61.3,0,0,0,.89,6.62C76.56,82,74,87,65.62,97.75,63.08,87.67,45.89,84.14,43.8,87.92c-3.34-4.34-18.68,1.46-20.92,6.73ZM28.6,57.83C27.69,61,34.69,61.08,36,65.41l.58-3.61c.52-4.38-5-3.78-8-4Zm35-1.94c-.9,3.19,6.1,3.25,7.39,7.59l.59-3.61c.52-4.38-5-3.79-8-4ZM11.21,53.48c0-8.21.69-14.6,3-15.57,1.5-3.1,3.51-3.88,5.8-3.3.44-2.27-.41-4.88-1.56-7.78,1.9.86,3.77,3.82,4.52,7.86,5.14-1.26,11.62-1.27,19.49,0a7,7,0,0,0,5,1.68c2.76-.11,5-1.13,7.41-1.06,1.34,0,2.63,1.08,4.1,1.23.78.08,1.55.13,2.33.14a22.29,22.29,0,0,0,10.8-2.45c13.8-7.09,7-24.5-5.62-27.77-7.61-2-17.13-.83-25.33-3.69C39,2,36.73,1.1,34.27,0l4.45,5.74c-7.32-2.45-10.89-3.55-16-.42,3.23-.42,5.75-.22,6.59.24-4.13,1.06-8.12,3-10.69,5.51A16.56,16.56,0,0,1,28.38,14c-6.36,0-11.14-1.1-15.54-.64-2.48.26-9.31,1.78-5.83,5.35a3.66,3.66,0,0,0,3.12.82c.24,1.61-3.08,2-4.62,3C2.94,24.3-.14,27.33,0,30.68a5.68,5.68,0,0,0,2.43,4.19C0,39.09.73,44.53,4.05,51l2.68,5.36L8.34,71H8.4c.2,18.68,2.49,48.47,27.33,51.79a28,28,0,0,0,8-.39c16.13,4,33-16.19,34.36-30.46a125.76,125.76,0,0,0,.58-19.1L78,70.52a4.14,4.14,0,0,0,.24.43c0-3.76-.15-5.8.65-9.46a28.55,28.55,0,0,0,.38-6.7,1.15,1.15,0,0,0,0-.49,15.81,15.81,0,0,1,.54-5.12c1-3.12,2.92-3.64,1-8.21-1.69-4.59-4.83-5.81-9.28-4a1.3,1.3,0,0,0,.4,1.2c2,2.38,1.15,3.45,2.11,6.81.37,1.31,1,2.49,1.43,4.25a28.68,28.68,0,0,1,.78,4.18c-7.9-1-14.88-1-22.72,1.86-2.5.91-5.53,2.92-7.61,3.46-3.14.83-6-1.42-8.84-2.61a44.72,44.72,0,0,0-23.4-3,15,15,0,0,0-2.5.32ZM29.5,101.31a11.62,11.62,0,0,1,2.27-5.1c1.84-2.68,3-2.51,5.68-2.09a38.47,38.47,0,0,0,14.27-.43c3.08,0,6.24,5.35,5.93,7.86s-4.82,5.18-7.24,5.16c-2.16,0-4.44-1.17-6.82-3.52-4.84,5-9.79,4.42-14.09-1.88Z"/></svg>