<svg width="17" height="16" viewBox="0 0 17 16" fill="none" xmlns="http://www.w3.org/2000/svg">
<g clip-path="url(#clip0_327_2145)">
<path d="M8.50016 14.6668C12.1821 14.6668 15.1668 11.6821 15.1668 8.00016C15.1668 4.31826 12.1821 1.3335 8.50016 1.3335C4.81826 1.3335 1.8335 4.31826 1.8335 8.00016C1.8335 11.6821 4.81826 14.6668 8.50016 14.6668Z" stroke="#D1D5DB" stroke-width="2" stroke-linecap="round" stroke-linejoin="round"/>
<path d="M10.5 6.23616C10.1417 5.82996 9.66823 5.5425 9.14254 5.41203C8.61685 5.28155 8.0639 5.31424 7.55725 5.50576C7.0506 5.69728 6.61429 6.03854 6.30636 6.48414C5.99843 6.92973 5.8335 7.45853 5.8335 8.00016C5.8335 8.5418 5.99843 9.0706 6.30636 9.51619C6.61429 9.96178 7.0506 10.303 7.55725 10.4946C8.0639 10.6861 8.61685 10.7188 9.14254 10.5883C9.66823 10.4578 10.1417 10.1704 10.5 9.76416" stroke="#D1D5DB" stroke-width="2" stroke-linecap="round" stroke-linejoin="round"/>
</g>
<defs>
<clipPath id="clip0_327_2145">
<rect width="16" height="16" fill="white" transform="translate(0.5)"/>
</clipPath>
</defs>
</svg>
